<svg width="26" height="26" viewBox="0 0 26 26" fill="none" xmlns="http://www.w3.org/2000/svg">
<g clip-path="url(#clip0_252_1081)">
<rect width="26" height="26" rx="13" fill="#F1F3F8"/>
<path d="M25.729 12.5898C25.729 14.297 25.3928 15.9875 24.7395 17.5647C24.0861 19.142 23.1286 20.5751 21.9214 21.7822C20.7143 22.9894 19.2811 23.947 17.7039 24.6003C16.1267 25.2536 14.4362 25.5898 12.729 25.5898C9.28119 25.5898 5.97457 24.2202 3.53659 21.7822C1.09861 19.3443 -0.270996 16.0377 -0.270996 12.5898C-0.270996 9.14203 1.09861 5.83543 3.53659 3.39746C5.97457 0.959483 9.28119 -0.410156 12.729 -0.410156C16.1768 -0.410156 19.4834 0.959483 21.9214 3.39746C24.3594 5.83543 25.729 9.14203 25.729 12.5898ZM7.1339 11.5252C7.01167 11.7145 6.94663 11.9176 6.93875 12.1344C6.93315 12.2707 6.95969 12.4064 7.01625 12.5306C7.07281 12.6547 7.15777 12.7638 7.26429 12.849C7.37081 12.9342 7.49591 12.9932 7.62943 13.0211C7.76295 13.049 7.90117 13.0451 8.03291 13.0098C9.66531 12.5662 9.59434 10.7327 8.48242 9.8337C7.24629 8.83415 5.41873 9.10031 4.72082 10.5671C2.81636 14.5357 8.78996 17.3451 11.0197 13.7727C13.8705 9.2186 7.58934 4.51068 3.57341 7.9115C3.11208 8.30185 3.42929 9.10914 3.2282 9.67299C2.94648 12.2934 2.38198 12.849 2.94648 13.8496C3.04121 13.8603 3.13712 13.8515 3.2282 13.8237C3.31927 13.7959 3.40354 13.7497 3.47573 13.6881C3.54792 13.6264 3.60647 13.5507 3.6477 13.4655C3.68894 13.3803 3.71198 13.2876 3.71535 13.1931C3.75675 12.2113 3.50833 11.2413 3.99924 10.3364C5.53108 7.53298 9.55294 8.04753 9.93147 11.4365C10.2568 14.3346 5.49562 14.1335 6.16395 11.679C6.2507 11.3557 6.44979 11.1428 6.76128 11.0403C7.34879 10.851 7.473 11.0127 7.1339 11.5252ZM18.2945 11.7263C18.2906 11.5016 18.2374 11.2906 18.1348 11.0935C18.072 10.9716 17.9795 10.8677 17.8658 10.791C17.7521 10.7143 17.6208 10.6674 17.4838 10.6544C17.3469 10.6415 17.2086 10.663 17.0817 10.7169C16.9547 10.7709 16.843 10.8556 16.7568 10.9634C15.8578 12.1049 16.7035 13.5125 18.052 13.7254C19.4715 13.9502 20.7549 12.8146 20.8436 11.4424C20.9619 9.56163 19.2467 8.23679 17.4842 8.3196C13.5038 8.50886 12.658 13.619 16.0589 15.4938C21.5771 18.5339 26.4979 10.6085 20.9324 6.87055C20.4237 6.52752 19.6963 6.6458 19.4715 7.26091C19.4242 7.38911 19.4158 7.52863 19.4473 7.66215C19.4788 7.79567 19.549 7.91733 19.6489 8.01205C20.27 8.59758 21.0033 9.14762 21.2872 9.96973C22.2335 12.7081 20.2581 14.9438 17.366 14.2163C14.7932 13.5657 15.4911 9.05299 18.3832 10.2241C18.5183 10.2795 18.6393 10.3646 18.7375 10.473C18.8357 10.5815 18.9087 10.7106 18.951 10.851C19.089 11.3123 18.9944 11.6652 18.6671 11.9097C18.633 11.9364 18.592 11.9529 18.5489 11.9573C18.5057 11.9618 18.4622 11.954 18.4233 11.9348C18.3845 11.9157 18.3517 11.886 18.3289 11.8491C18.3062 11.8122 18.2942 11.7697 18.2945 11.7263ZM11.8004 20.5211C13.0898 21.641 14.4284 21.6094 15.8163 20.4265C15.9701 20.2964 16.2264 20.4344 16.5853 20.8405C16.9441 21.2427 17.3778 21.3531 17.8864 21.1717C18.056 21.1126 18.2038 21.018 18.33 20.8878C18.7519 20.4502 18.7854 19.9869 18.4306 19.4979C17.1609 17.7433 15.6468 17.5127 13.8883 18.806C13.7226 18.9321 13.561 18.9262 13.4033 18.7882C12.1612 17.7275 10.8856 17.767 9.57658 18.9065C9.38732 19.0721 9.2099 19.0603 9.0443 18.871C8.86292 18.662 8.64406 18.5043 8.38776 18.3979C8.2092 18.325 8.01489 18.2993 7.82354 18.3233C7.63218 18.3473 7.45022 18.4201 7.29515 18.5348C7.14009 18.6495 7.01717 18.8021 6.93817 18.978C6.85917 19.154 6.82676 19.3473 6.8441 19.5393C6.89141 20.048 7.15165 20.462 7.62481 20.7814C8.92994 21.6725 10.1661 21.5877 11.3332 20.5271C11.487 20.3851 11.6427 20.3831 11.8004 20.5211Z" fill="#FCC145"/>
<path d="M7.13399 11.5254C7.47308 11.0128 7.34888 10.8511 6.76137 11.0404C6.44988 11.1429 6.25078 11.3558 6.16404 11.6792C5.4957 14.1337 10.2569 14.3348 9.93156 11.4367C9.55303 8.04769 5.53117 7.53313 3.99932 10.3366C3.50842 11.2415 3.75684 12.2115 3.71544 13.1933C3.71206 13.2877 3.68902 13.3805 3.64779 13.4656C3.60656 13.5508 3.54801 13.6266 3.47581 13.6882C3.40362 13.7499 3.31936 13.796 3.22828 13.8238C3.1372 13.8516 3.0413 13.8605 2.94656 13.8498C1.68087 13.7118 1.85909 10.955 2.57987 9.34295C2.85761 8.72177 3.11217 8.302 3.5735 7.91165C7.58942 4.51083 13.8706 9.21875 11.0198 13.7729C8.79004 17.3452 2.81645 14.5359 4.72091 10.5672C5.41881 9.10046 7.24638 8.83431 8.4825 9.83385C9.59442 10.7329 9.66539 12.5663 8.033 13.0099C7.90125 13.0453 7.76304 13.0492 7.62952 13.0213C7.496 12.9933 7.3709 12.9344 7.26438 12.8492C7.15786 12.7639 7.0729 12.6549 7.01634 12.5307C6.95978 12.4066 6.93324 12.2709 6.93883 12.1346C6.94672 11.9177 7.01175 11.7147 7.13399 11.5254Z" fill="#020202"/>
<path d="M18.667 11.9103C18.9943 11.6658 19.089 11.3129 18.951 10.8516C18.9086 10.7112 18.8356 10.5821 18.7374 10.4736C18.6392 10.3652 18.5182 10.2801 18.3832 10.2247C15.491 9.0536 14.7931 13.5663 17.3659 14.2169C20.2581 14.9444 22.2335 12.7087 21.2872 9.97034C21.0033 9.14823 20.2699 8.59819 19.6489 8.01266C19.5489 7.91794 19.4788 7.79628 19.4472 7.66276C19.4157 7.52924 19.4241 7.38973 19.4714 7.26152C19.6962 6.64642 20.4237 6.52813 20.9323 6.87117C26.4978 10.6091 21.577 18.5345 16.0588 15.4945C12.658 13.6196 13.5037 8.50947 17.4842 8.32021C19.2467 8.23741 20.9619 9.56225 20.8436 11.443C20.7548 12.8152 19.4714 13.9508 18.052 13.726C16.7035 13.5131 15.8577 12.1055 16.7567 10.964C16.8429 10.8562 16.9546 10.7715 17.0816 10.7175C17.2086 10.6636 17.3468 10.6421 17.4838 10.655C17.6207 10.668 17.752 10.7149 17.8657 10.7916C17.9794 10.8683 18.0719 10.9723 18.1348 11.0941C18.2373 11.2912 18.2905 11.5022 18.2944 11.7269C18.2941 11.7703 18.3061 11.8128 18.3289 11.8497C18.3517 11.8866 18.3844 11.9163 18.4233 11.9354C18.4622 11.9546 18.5057 11.9624 18.5488 11.9579C18.5919 11.9535 18.6329 11.937 18.667 11.9103Z" fill="#020202"/>
<path d="M11.333 20.5267C10.1659 21.5874 8.92974 21.6721 7.62462 20.781C7.15146 20.4616 6.89122 20.0476 6.8439 19.539C6.82657 19.3469 6.85898 19.1536 6.93798 18.9777C7.01697 18.8017 7.1399 18.6491 7.29496 18.5344C7.45002 18.4198 7.63199 18.3469 7.82334 18.323C8.0147 18.299 8.209 18.3246 8.38757 18.3975C8.64386 18.5039 8.86273 18.6617 9.0441 18.8706C9.20971 19.0599 9.38712 19.0717 9.57639 18.9061C10.8855 17.7666 12.161 17.7272 13.4031 18.7878C13.5608 18.9258 13.7225 18.9318 13.8881 18.8056C15.6466 17.5123 17.1607 17.7429 18.4304 19.4976C18.7852 19.9865 18.7517 20.4498 18.3298 20.8875C18.2036 21.0176 18.0558 21.1122 17.8862 21.1714C17.3776 21.3527 16.9439 21.2423 16.5851 20.8402C16.2262 20.434 15.9699 20.296 15.8161 20.4261C14.4282 21.609 13.0896 21.6406 11.8002 20.5208C11.6425 20.3828 11.4868 20.3847 11.333 20.5267Z" fill="#020202"/>
</g>
<defs>
<clipPath id="clip0_252_1081">
<rect width="26" height="26" rx="13" fill="white"/>
</clipPath>
</defs>
</svg>
